<svg xmlns="http://www.w3.org/2000/svg" viewBox="0 0 65.68 65.68"><defs><style>.cls-1{fill:#fff;}</style></defs><title>Asset 2</title><g id="Layer_2" data-name="Layer 2"><g id="Layer_1-2" data-name="Layer 1"><path class="cls-1" d="M50.23,11.73a3.85,3.85,0,1,0,3.85,3.85A3.85,3.85,0,0,0,50.23,11.73Z"/><path class="cls-1" d="M33.11,16.67A16.18,16.18,0,1,0,49.29,32.84,16.19,16.19,0,0,0,33.11,16.67Zm0,26.53A10.36,10.36,0,1,1,43.47,32.84,10.37,10.37,0,0,1,33.11,43.2Z"/><path class="cls-1" d="M46,65.68H19.73A19.75,19.75,0,0,1,0,46V19.73A19.75,19.75,0,0,1,19.73,0H46A19.75,19.75,0,0,1,65.68,19.73V46A19.75,19.75,0,0,1,46,65.68ZM19.73,6.18A13.57,13.57,0,0,0,6.18,19.73V46A13.57,13.57,0,0,0,19.73,59.5H46A13.57,13.57,0,0,0,59.5,46V19.73A13.57,13.57,0,0,0,46,6.18Z"/></g></g></svg>