<svg xmlns="http://www.w3.org/2000/svg" viewBox="0 0 61.1 50.29"><defs><style>.cls-1{fill:#fff;}</style></defs><title>TWITAsset 1</title><g id="Layer_2" data-name="Layer 2"><g id="Layer_1-2" data-name="Layer 1"><path class="cls-1" d="M60.84,6a25.33,25.33,0,0,1-6.17,1.76c1-.17,2.45-2,3-2.69a11.33,11.33,0,0,0,2.06-3.74c.05-.11.09-.24,0-.33a.38.38,0,0,0-.33,0,31.84,31.84,0,0,1-7.32,2.81.5.5,0,0,1-.51-.14,4.93,4.93,0,0,0-.64-.65A13.11,13.11,0,0,0,47.39.9,12.32,12.32,0,0,0,42,0a13,13,0,0,0-5.16,1.45,13.34,13.34,0,0,0-4.17,3.41,12.92,12.92,0,0,0-2.49,5A13.69,13.69,0,0,0,30,15.13c0,.29,0,.33-.25.29C19.69,13.93,11.35,10.33,4.58,2.61c-.3-.33-.45-.33-.7,0-3,4.44-1.52,11.57,2.18,15.08a20.37,20.37,0,0,0,1.55,1.36,12.93,12.93,0,0,1-4.86-1.36c-.29-.19-.44-.08-.47.25a8.94,8.94,0,0,0,.08,1.44,12.9,12.9,0,0,0,8,10.29,7.34,7.34,0,0,0,1.61.5,14.48,14.48,0,0,1-4.76.14c-.35-.06-.48.11-.35.44,2.1,5.72,6.62,7.42,10,8.39.45.08.91.08,1.36.18l-.08.08c-1.12,1.72-5,3-6.83,3.63A24.63,24.63,0,0,1,.89,44.39c-.55-.09-.67-.08-.82,0s0,.22.16.37c.7.47,1.43.88,2.16,1.28a34.46,34.46,0,0,0,6.94,2.78c12.47,3.44,26.52.91,35.88-8.39C52.57,33.12,55.15,23,55.15,13c0-.39.46-.61.74-.82a24.24,24.24,0,0,0,4.88-5.08,1.55,1.55,0,0,0,.33-1V6C61.1,5.87,61.09,5.91,60.84,6Z"/></g></g></svg>