<svg xmlns="http://www.w3.org/2000/svg" viewBox="0 0 64.99 65.15"><defs><style>.cls-1,.cls-2{fill:#ffffff;}.cls-2{fill-rule:evenodd;}</style></defs><title>Asset 4</title><g id="Layer_2" data-name="Layer 2"><g id="Layer_1-2" data-name="Layer 1"><path class="cls-1" d="M0,65.15,4.67,47.72A32.28,32.28,0,1,1,17.52,60.45ZM18.39,53.92l1.1.66a26.13,26.13,0,1,0-9-8.87l.68,1.11L8.6,56.55Z"/><path class="cls-2" d="M44.78,36.65c-1.32-.79-3.05-1.68-4.61-1-1.19.49-2,2.37-2.73,3.32a1.15,1.15,0,0,1-1.49.32,20.79,20.79,0,0,1-10.41-8.92,1.27,1.27,0,0,1,.16-1.74,7,7,0,0,0,1.89-3.07,6.77,6.77,0,0,0-.85-3.64c-.62-1.35-1.33-3.28-2.68-4.05a3.7,3.7,0,0,0-4,.6,8.14,8.14,0,0,0-2.81,6.42,9.27,9.27,0,0,0,.26,2,16.7,16.7,0,0,0,1.95,4.51,36,36,0,0,0,2,3.1,31.74,31.74,0,0,0,8.86,8.23,27.37,27.37,0,0,0,5.52,2.62c2.16.72,4.09,1.46,6.43,1A7.79,7.79,0,0,0,48.14,42a3.74,3.74,0,0,0,.27-2.21C48.08,38.29,46,37.39,44.78,36.65Z"/></g></g></svg>